<svg width="390" height="57" viewBox="0 0 390 57" fill="none" xmlns="http://www.w3.org/2000/svg">
<rect width="192.375" height="57" rx="5" fill="black"/>
<path d="M97.0938 30.9954C93.7422 30.9954 91.0105 33.5448 91.0105 37.056C91.0105 40.5458 93.7422 43.1165 97.0938 43.1165C100.447 43.1165 103.179 40.5458 103.179 37.056C103.177 33.5448 100.445 30.9954 97.0938 30.9954ZM97.0938 40.731C95.257 40.731 93.6738 39.2163 93.6738 37.0574C93.6738 34.8757 95.2584 33.3837 97.0938 33.3837C98.9306 33.3837 100.514 34.8757 100.514 37.0574C100.514 39.2148 98.9306 40.731 97.0938 40.731ZM83.8214 30.9954C80.4698 30.9954 77.738 33.5448 77.738 37.056C77.738 40.5458 80.4698 43.1165 83.8214 43.1165C87.1744 43.1165 89.9061 40.5458 89.9061 37.056C89.9061 33.5448 87.1744 30.9954 83.8214 30.9954ZM83.8214 40.731C81.9845 40.731 80.4014 39.2163 80.4014 37.0574C80.4014 34.8757 81.986 33.3837 83.8214 33.3837C85.6582 33.3837 87.2414 34.8757 87.2414 37.0574C87.2428 39.2148 85.6582 40.731 83.8214 40.731ZM68.0352 32.8565V35.4272H74.1884C74.0045 36.8736 73.5229 37.9295 72.7876 38.6634C71.8927 39.5583 70.4919 40.5458 68.0352 40.5458C64.2476 40.5458 61.2864 37.492 61.2864 33.7044C61.2864 29.9167 64.2476 26.8629 68.0352 26.8629C70.0787 26.8629 71.5706 27.6666 72.6722 28.6998L74.4862 26.8857C72.9472 25.4166 70.9052 24.2922 68.0352 24.2922C62.8468 24.2922 58.4849 28.5159 58.4849 33.7044C58.4849 38.8928 62.8468 43.1165 68.0352 43.1165C70.8353 43.1165 72.9486 42.1974 74.6002 40.476C76.2988 38.7774 76.8275 36.3891 76.8275 34.461C76.8275 33.8654 76.7819 33.3139 76.6892 32.8551H68.0352V32.8565ZM132.599 34.8529C132.095 33.4992 130.556 30.9954 127.411 30.9954C124.289 30.9954 121.694 33.4521 121.694 37.056C121.694 40.4532 124.266 43.1165 127.709 43.1165C130.486 43.1165 132.093 41.4179 132.76 40.4304L130.694 39.0524C130.006 40.0627 129.064 40.7282 127.709 40.7282C126.355 40.7282 125.39 40.1083 124.77 38.8914L132.874 35.5398L132.599 34.8529ZM124.334 36.8736C124.266 34.5309 126.148 33.3381 127.503 33.3381C128.559 33.3381 129.454 33.8668 129.753 34.6235L124.334 36.8736ZM117.746 42.7503H120.408V24.9363H117.746V42.7503ZM113.383 32.3506H113.292C112.695 31.6381 111.546 30.9954 110.101 30.9954C107.07 30.9954 104.293 33.6588 104.293 37.0802C104.293 40.4774 107.07 43.1179 110.101 43.1179C111.548 43.1179 112.695 42.4752 113.292 41.7414H113.383V42.6135C113.383 44.9319 112.143 46.1717 110.147 46.1717C108.517 46.1717 107.506 45.0018 107.093 44.0142L104.775 44.979C105.44 46.5849 107.207 48.56 110.147 48.56C113.269 48.56 115.91 46.7232 115.91 42.2458V31.3645H113.384V32.3506H113.383ZM110.331 40.731C108.494 40.731 106.956 39.192 106.956 37.0802C106.956 34.9441 108.494 33.3837 110.331 33.3837C112.143 33.3837 113.567 34.9441 113.567 37.0802C113.567 39.192 112.143 40.731 110.331 40.731ZM145.074 24.9363H138.702V42.7503H141.36V36.0015H145.072C148.019 36.0015 150.917 33.8682 150.917 30.4696C150.917 27.071 148.02 24.9363 145.074 24.9363ZM145.142 33.522H141.36V27.4158H145.142C147.13 27.4158 148.258 29.0617 148.258 30.4696C148.258 31.849 147.13 33.522 145.142 33.522ZM161.575 30.9641C159.65 30.9641 157.656 31.812 156.831 33.6915L159.191 34.6762C159.695 33.6915 160.636 33.3695 161.621 33.3695C162.996 33.3695 164.394 34.1946 164.417 35.6609V35.8447C163.935 35.5697 162.903 35.1579 161.643 35.1579C159.1 35.1579 156.509 36.5558 156.509 39.1678C156.509 41.5518 158.595 43.0866 160.932 43.0866C162.719 43.0866 163.705 42.2843 164.324 41.3438H164.415V42.7189H166.983V35.8889C166.984 32.7282 164.622 30.9641 161.575 30.9641ZM161.253 40.7268C160.384 40.7268 159.168 40.2907 159.168 39.2134C159.168 37.8383 160.682 37.311 161.988 37.311C163.155 37.311 163.707 37.5633 164.417 37.9067C164.21 39.5583 162.789 40.7268 161.253 40.7268ZM176.334 31.3531L173.286 39.0766H173.195L170.031 31.3531H167.167L171.911 42.1475L169.206 48.1524H171.979L179.291 31.3531H176.334ZM152.385 42.7503H155.043V24.9363H152.385V42.7503Z" fill="white"/>
<path d="M67.5707 14.5963C67.5707 15.7904 67.2173 16.7409 66.5091 17.4506C65.7054 18.2942 64.6566 18.716 63.3684 18.716C62.1344 18.716 61.0841 18.2885 60.222 17.4335C59.3585 16.577 58.9267 15.5168 58.9267 14.2514C58.9267 12.9846 59.3585 11.9244 60.222 11.0694C61.0841 10.213 62.1344 9.7855 63.3684 9.7855C63.9812 9.7855 64.5668 9.9052 65.1226 10.1432C65.6798 10.3826 66.1258 10.7003 66.4592 11.0979L65.7083 11.8503C65.1425 11.1734 64.3631 10.8357 63.367 10.8357C62.4664 10.8357 61.6883 11.1521 61.0314 11.7848C60.3745 12.4175 60.0467 13.2397 60.0467 14.25C60.0467 15.2603 60.3745 16.0826 61.0314 16.7153C61.6883 17.348 62.4664 17.6643 63.367 17.6643C64.3217 17.6643 65.1183 17.3465 65.7553 16.7096C66.1685 16.2949 66.4079 15.7178 66.4721 14.9782H63.367V13.9508H67.5095C67.5522 14.1745 67.5707 14.3897 67.5707 14.5963Z" fill="white"/>
<path d="M74.1401 11.0253H70.247V13.7357H73.7582V14.7631H70.247V17.4735H74.1401V18.5251H69.1484V9.9751H74.1401V11.0253Z" fill="white"/>
<path d="M78.7726 18.5251H77.674V11.0253H75.2857V9.9751H81.1609V11.0253H78.7726V18.5251Z" fill="white"/>
<path d="M85.4117 18.5251V9.9751H86.5103V18.5251H85.4117Z" fill="white"/>
<path d="M91.3826 18.5251H90.284V11.0253H87.8957V9.9751H93.7709V11.0253H91.3826V18.5251Z" fill="white"/>
<path d="M104.893 17.4207C104.052 18.2843 103.007 18.716 101.758 18.716C100.508 18.716 99.4635 18.2843 98.6242 17.4207C97.7834 16.5572 97.3645 15.4998 97.3645 14.2501C97.3645 13.0004 97.7834 11.943 98.6242 11.0795C99.4635 10.2159 100.508 9.78271 101.758 9.78271C103 9.78271 104.043 10.2173 104.887 11.0852C105.731 11.953 106.152 13.0075 106.152 14.2501C106.152 15.4998 105.732 16.5572 104.893 17.4207ZM99.435 16.7039C100.068 17.3452 100.841 17.6644 101.758 17.6644C102.674 17.6644 103.449 17.3438 104.08 16.7039C104.713 16.0627 105.031 15.2447 105.031 14.2501C105.031 13.2554 104.713 12.4375 104.08 11.7962C103.449 11.155 102.674 10.8358 101.758 10.8358C100.841 10.8358 100.068 11.1564 99.435 11.7962C98.8037 12.4375 98.4859 13.2554 98.4859 14.2501C98.4859 15.2447 98.8037 16.0627 99.435 16.7039Z" fill="white"/>
<path d="M107.694 18.5251V9.9751H109.031L113.186 16.6256H113.233L113.186 14.9783V9.9751H114.285V18.5251H113.138L108.79 11.5512H108.743L108.79 13.1985V18.5251H107.694Z" fill="white"/>
<path d="M67.5707 14.5963C67.5707 15.7904 67.2173 16.7409 66.5091 17.4506C65.7054 18.2942 64.6566 18.716 63.3684 18.716C62.1344 18.716 61.0841 18.2885 60.222 17.4335C59.3585 16.577 58.9267 15.5168 58.9267 14.2514C58.9267 12.9846 59.3585 11.9244 60.222 11.0694C61.0841 10.213 62.1344 9.7855 63.3684 9.7855C63.9812 9.7855 64.5668 9.9052 65.1226 10.1432C65.6798 10.3826 66.1258 10.7003 66.4592 11.0979L65.7083 11.8503C65.1425 11.1734 64.3631 10.8357 63.367 10.8357C62.4664 10.8357 61.6883 11.1521 61.0314 11.7848C60.3745 12.4175 60.0467 13.2397 60.0467 14.25C60.0467 15.2603 60.3745 16.0826 61.0314 16.7153C61.6883 17.348 62.4664 17.6643 63.367 17.6643C64.3217 17.6643 65.1183 17.3465 65.7553 16.7096C66.1685 16.2949 66.4079 15.7178 66.4721 14.9782H63.367V13.9508H67.5095C67.5522 14.1745 67.5707 14.3897 67.5707 14.5963Z" stroke="white" stroke-width="0.2" stroke-miterlimit="10"/>
<path d="M74.1401 11.0253H70.247V13.7357H73.7582V14.7631H70.247V17.4735H74.1401V18.5251H69.1484V9.9751H74.1401V11.0253Z" stroke="white" stroke-width="0.2" stroke-miterlimit="10"/>
<path d="M78.7726 18.5251H77.674V11.0253H75.2857V9.9751H81.1609V11.0253H78.7726V18.5251Z" stroke="white" stroke-width="0.2" stroke-miterlimit="10"/>
<path d="M85.4117 18.5251V9.9751H86.5103V18.5251H85.4117Z" stroke="white" stroke-width="0.2" stroke-miterlimit="10"/>
<path d="M91.3826 18.5251H90.284V11.0253H87.8957V9.9751H93.7709V11.0253H91.3826V18.5251Z" stroke="white" stroke-width="0.2" stroke-miterlimit="10"/>
<path d="M104.893 17.4207C104.052 18.2843 103.007 18.716 101.758 18.716C100.508 18.716 99.4635 18.2843 98.6242 17.4207C97.7834 16.5572 97.3645 15.4998 97.3645 14.2501C97.3645 13.0004 97.7834 11.943 98.6242 11.0795C99.4635 10.2159 100.508 9.78271 101.758 9.78271C103 9.78271 104.043 10.2173 104.887 11.0852C105.731 11.953 106.152 13.0075 106.152 14.2501C106.152 15.4998 105.732 16.5572 104.893 17.4207ZM99.435 16.7039C100.068 17.3452 100.841 17.6644 101.758 17.6644C102.674 17.6644 103.449 17.3438 104.08 16.7039C104.713 16.0627 105.031 15.2447 105.031 14.2501C105.031 13.2554 104.713 12.4375 104.08 11.7962C103.449 11.155 102.674 10.8358 101.758 10.8358C100.841 10.8358 100.068 11.1564 99.435 11.7962C98.8037 12.4375 98.4859 13.2554 98.4859 14.2501C98.4859 15.2447 98.8037 16.0627 99.435 16.7039Z" stroke="white" stroke-width="0.2" stroke-miterlimit="10"/>
<path d="M107.694 18.5251V9.9751H109.031L113.186 16.6256H113.233L113.186 14.9783V9.9751H114.285V18.5251H113.138L108.79 11.5512H108.743L108.79 13.1985V18.5251H107.694Z" stroke="white" stroke-width="0.2" stroke-miterlimit="10"/>
<g filter="url(#filter0_ii_2_298)">
<path d="M14.8713 10.7417C14.4566 11.1806 14.2115 11.8618 14.2115 12.7438V44.2591C14.2115 45.1426 14.4566 45.8224 14.8713 46.2613L14.9768 46.3639L32.6311 28.7095V28.5015V28.2934L14.9768 10.6377L14.8713 10.7417Z" fill="url(#paint0_linear_2_298)"/>
<path d="M38.5149 34.5962L32.6311 28.7096V28.5015V28.2935L38.5164 22.4082L38.6489 22.4837L45.6214 26.4452C47.6121 27.5767 47.6121 29.4278 45.6214 30.5606L38.6489 34.5221L38.5149 34.5962Z" fill="url(#paint1_linear_2_298)"/>
<g filter="url(#filter1_i_2_298)">
<path d="M38.6489 34.5207L32.6297 28.5015L14.8713 46.2612C15.5268 46.9566 16.6113 47.0421 17.8325 46.3496L38.6489 34.5207Z" fill="url(#paint2_linear_2_298)"/>
</g>
<path d="M38.6489 22.4822L17.8325 10.6547C16.6113 9.96071 15.5268 10.0476 14.8713 10.743L32.6311 28.5028L38.6489 22.4822Z" fill="url(#paint3_linear_2_298)"/>
</g>
<rect x="218.025" width="171" height="57" rx="7" fill="#0C0D10"/>
<path d="M334.2 27.3613V30.626H332.153V32.7669H334.2V40.0415C334.2 42.5255 335.324 43.5191 338.151 43.5191C338.647 43.5191 339.12 43.46 339.534 43.389V41.2717C339.18 41.3072 338.955 41.3309 338.565 41.3309C337.299 41.3309 336.743 40.7394 336.743 39.391V32.7669H339.534V30.626H336.743V27.3613H334.2Z" fill="white"/>
<path d="M346.736 43.6966C350.498 43.6966 352.804 41.1771 352.804 37.0016C352.804 32.8497 350.486 30.3184 346.736 30.3184C342.975 30.3184 340.656 32.8497 340.656 37.0016C340.656 41.1771 342.963 43.6966 346.736 43.6966ZM346.736 41.4373C344.524 41.4373 343.282 39.8168 343.282 37.0016C343.282 34.21 344.524 32.5777 346.736 32.5777C348.936 32.5777 350.19 34.21 350.19 37.0016C350.19 39.805 348.936 41.4373 346.736 41.4373Z" fill="white"/>
<path d="M354.778 43.4482H357.321V35.8424C357.321 34.0326 358.681 32.8143 360.609 32.8143C361.059 32.8143 361.816 32.8971 362.029 32.968V30.4604C361.757 30.3894 361.272 30.3539 360.893 30.3539C359.214 30.3539 357.782 31.2765 357.416 32.5422H357.226V30.5668H354.778V43.4482Z" fill="white"/>
<path d="M368.343 32.4831C370.224 32.4831 371.454 33.796 371.513 35.8187H365.008C365.15 33.8079 366.463 32.4831 368.343 32.4831ZM371.502 39.9706C371.028 40.976 369.976 41.5319 368.438 41.5319C366.403 41.5319 365.09 40.1007 365.008 37.8414V37.6995H374.104V36.8123C374.104 32.7669 371.939 30.3184 368.355 30.3184C364.724 30.3184 362.417 32.9325 362.417 37.0489C362.417 41.1653 364.676 43.6966 368.367 43.6966C371.312 43.6966 373.37 42.2771 373.95 39.9706H371.502Z" fill="white"/>
<path d="M317.522 38.6913C317.718 41.8544 320.354 43.8773 324.277 43.8773C328.47 43.8773 331.094 41.7563 331.094 38.3725C331.094 35.7121 329.598 34.2409 325.969 33.395L324.02 32.9168C321.715 32.3774 320.783 31.654 320.783 30.3913C320.783 28.7975 322.23 27.7554 324.4 27.7554C326.46 27.7554 327.882 28.7729 328.139 30.4035H330.812C330.653 27.4243 328.029 25.3279 324.437 25.3279C320.575 25.3279 318 27.4243 318 30.5752C318 33.1743 319.459 34.719 322.659 35.4669L324.939 36.0186C327.281 36.5703 328.311 37.3795 328.311 38.7281C328.311 40.2974 326.693 41.4375 324.486 41.4375C322.12 41.4375 320.477 40.3709 320.244 38.6913H317.522Z" fill="white"/>
<path d="M291.178 30.3539C289.427 30.3539 287.913 31.2292 287.132 32.696H286.943V30.5668H284.495V47.7301H287.038V41.4965H287.239C287.913 42.8567 289.368 43.6611 291.201 43.6611C294.454 43.6611 296.524 41.0943 296.524 37.0016C296.524 32.9089 294.454 30.3539 291.178 30.3539ZM290.456 41.3782C288.327 41.3782 286.99 39.6985 286.99 37.0134C286.99 34.3165 288.327 32.6368 290.468 32.6368C292.621 32.6368 293.91 34.281 293.91 37.0016C293.91 39.734 292.621 41.3782 290.456 41.3782Z" fill="white"/>
<path d="M305.423 30.3539C303.673 30.3539 302.158 31.2292 301.378 32.696H301.189V30.5668H298.74V47.7301H301.283V41.4965H301.484C302.158 42.8567 303.613 43.6611 305.447 43.6611C308.7 43.6611 310.77 41.0943 310.77 37.0016C310.77 32.9089 308.7 30.3539 305.423 30.3539ZM304.702 41.3782C302.572 41.3782 301.236 39.6985 301.236 37.0134C301.236 34.3165 302.572 32.6368 304.713 32.6368C306.866 32.6368 308.156 34.281 308.156 37.0016C308.156 39.734 306.866 41.3782 304.702 41.3782Z" fill="white"/>
<path d="M279.932 43.4482H282.85L276.462 25.757H273.507L267.12 43.4482H269.94L271.57 38.7526H278.313L279.932 43.4482ZM274.844 28.9691H275.052L277.615 36.4477H272.269L274.844 28.9691Z" fill="white"/>
<path d="M268.828 12.4131V20.9474H271.91C274.453 20.9474 275.925 19.3801 275.925 16.6536C275.925 13.9685 274.441 12.4131 271.91 12.4131H268.828ZM270.153 13.6196H271.762C273.53 13.6196 274.577 14.7433 274.577 16.6714C274.577 18.629 273.548 19.7409 271.762 19.7409H270.153V13.6196Z" fill="white"/>
<path d="M280.436 21.0716C282.316 21.0716 283.47 19.8119 283.47 17.7241C283.47 15.6482 282.311 14.3825 280.436 14.3825C278.555 14.3825 277.396 15.6482 277.396 17.7241C277.396 19.8119 278.549 21.0716 280.436 21.0716ZM280.436 19.942C279.33 19.942 278.709 19.1317 278.709 17.7241C278.709 16.3284 279.33 15.5122 280.436 15.5122C281.536 15.5122 282.163 16.3284 282.163 17.7241C282.163 19.1258 281.536 19.942 280.436 19.942Z" fill="white"/>
<path d="M293.291 14.5067H292.019L290.872 19.4215H290.772L289.447 14.5067H288.228L286.904 19.4215H286.809L285.656 14.5067H284.366L286.141 20.9474H287.448L288.772 16.2041H288.873L290.204 20.9474H291.523L293.291 14.5067Z" fill="white"/>
<path d="M294.755 20.9474H296.027V17.18C296.027 16.1746 296.624 15.5477 297.565 15.5477C298.505 15.5477 298.955 16.0622 298.955 17.0972V20.9474H300.226V16.7778C300.226 15.246 299.434 14.3825 297.996 14.3825C297.026 14.3825 296.388 14.8143 296.074 15.5299H295.98V14.5067H294.755V20.9474Z" fill="white"/>
<path d="M302.229 20.9474H303.5V11.9932H302.229V20.9474Z" fill="white"/>
<path d="M308.283 21.0716C310.163 21.0716 311.317 19.8119 311.317 17.7241C311.317 15.6482 310.157 14.3825 308.283 14.3825C306.402 14.3825 305.243 15.6482 305.243 17.7241C305.243 19.8119 306.396 21.0716 308.283 21.0716ZM308.283 19.942C307.177 19.942 306.556 19.1317 306.556 17.7241C306.556 16.3284 307.177 15.5122 308.283 15.5122C309.383 15.5122 310.01 16.3284 310.01 17.7241C310.01 19.1258 309.383 19.942 308.283 19.942Z" fill="white"/>
<path d="M315.105 19.9834C314.413 19.9834 313.911 19.6463 313.911 19.0667C313.911 18.4989 314.313 18.1973 315.2 18.1381L316.773 18.0376V18.5758C316.773 19.3742 316.063 19.9834 315.105 19.9834ZM314.78 21.0539C315.626 21.0539 316.33 20.6872 316.714 20.0425H316.815V20.9474H318.039V16.5472C318.039 15.1869 317.128 14.3825 315.513 14.3825C314.053 14.3825 313.012 15.0923 312.882 16.1982H314.112C314.254 15.7428 314.745 15.4826 315.454 15.4826C316.324 15.4826 316.773 15.867 316.773 16.5472V17.1031L315.028 17.2037C313.497 17.2983 312.633 17.9666 312.633 19.1258C312.633 20.3028 313.538 21.0539 314.78 21.0539Z" fill="white"/>
<path d="M322.354 21.0539C323.241 21.0539 323.992 20.634 324.377 19.9302H324.477V20.9474H325.695V11.9932H324.424V15.5299H324.329C323.98 14.8202 323.235 14.4003 322.354 14.4003C320.727 14.4003 319.681 15.6896 319.681 17.7241C319.681 19.7646 320.716 21.0539 322.354 21.0539ZM322.715 15.5417C323.779 15.5417 324.448 16.3875 324.448 17.73C324.448 19.0785 323.785 19.9124 322.715 19.9124C321.638 19.9124 320.994 19.0903 320.994 17.7241C320.994 16.3698 321.644 15.5417 322.715 15.5417Z" fill="white"/>
<path d="M333.941 21.0716C335.822 21.0716 336.975 19.8119 336.975 17.7241C336.975 15.6482 335.816 14.3825 333.941 14.3825C332.06 14.3825 330.901 15.6482 330.901 17.7241C330.901 19.8119 332.055 21.0716 333.941 21.0716ZM333.941 19.942C332.835 19.942 332.214 19.1317 332.214 17.7241C332.214 16.3284 332.835 15.5122 333.941 15.5122C335.041 15.5122 335.668 16.3284 335.668 17.7241C335.668 19.1258 335.041 19.942 333.941 19.942Z" fill="white"/>
<path d="M338.658 20.9474H339.93V17.18C339.93 16.1746 340.527 15.5477 341.468 15.5477C342.408 15.5477 342.858 16.0622 342.858 17.0972V20.9474H344.129V16.7778C344.129 15.246 343.337 14.3825 341.9 14.3825C340.93 14.3825 340.291 14.8143 339.977 15.5299H339.883V14.5067H338.658V20.9474Z" fill="white"/>
<path d="M349.986 12.904V14.5363H348.962V15.6068H349.986V19.2441C349.986 20.4861 350.547 20.9829 351.961 20.9829C352.209 20.9829 352.446 20.9533 352.653 20.9179V19.8592C352.475 19.8769 352.363 19.8888 352.168 19.8888C351.535 19.8888 351.257 19.593 351.257 18.9188V15.6068H352.653V14.5363H351.257V12.904H349.986Z" fill="white"/>
<path d="M354.36 20.9474H355.631V17.1859C355.631 16.2101 356.211 15.5536 357.252 15.5536C358.151 15.5536 358.63 16.074 358.63 17.1031V20.9474H359.901V16.7897C359.901 15.2579 359.056 14.3885 357.684 14.3885C356.714 14.3885 356.034 14.8202 355.72 15.5417H355.62V11.9932H354.36V20.9474Z" fill="white"/>
<path d="M364.489 15.4649C365.429 15.4649 366.044 16.1213 366.074 17.1327H362.821C362.892 16.1273 363.548 15.4649 364.489 15.4649ZM366.068 19.2086C365.831 19.7113 365.305 19.9893 364.536 19.9893C363.519 19.9893 362.862 19.2737 362.821 18.144V18.0731H367.369V17.6295C367.369 15.6068 366.287 14.3825 364.495 14.3825C362.679 14.3825 361.526 15.6896 361.526 17.7478C361.526 19.806 362.655 21.0716 364.5 21.0716C365.973 21.0716 367.002 20.3619 367.292 19.2086H366.068Z" fill="white"/>
<path d="M253.321 28.9288C253.352 26.5333 254.639 24.2667 256.679 23.0121C255.392 21.1734 253.235 20.0076 250.992 19.9374C248.599 19.6862 246.279 21.3693 245.06 21.3693C243.817 21.3693 241.939 19.9623 239.918 20.0039C237.282 20.0891 234.826 21.5873 233.544 23.8911C230.788 28.6626 232.843 35.6751 235.483 39.5321C236.804 41.4207 238.348 43.5303 240.368 43.4555C242.344 43.3735 243.083 42.1951 245.468 42.1951C247.832 42.1951 248.525 43.4555 250.586 43.4079C252.707 43.3735 254.043 41.5109 255.317 39.6044C256.266 38.2587 256.997 36.7714 257.481 35.1976C254.989 34.1434 253.324 31.635 253.321 28.9288Z" fill="white"/>
<path d="M249.429 17.4009C250.585 16.0126 251.155 14.2283 251.017 12.4268C249.25 12.6123 247.618 13.4567 246.446 14.7917C245.3 16.096 244.703 17.849 244.816 19.5817C246.584 19.5999 248.321 18.7784 249.429 17.4009Z" fill="white"/>
<defs>
<filter id="filter0_ii_2_298" x="14.2115" y="10.1758" width="32.9029" height="36.6521" filterUnits="userSpaceOnUse" color-interpolation-filters="sRGB">
<feFlood flood-opacity="0" result="BackgroundImageFix"/>
<feBlend mode="normal" in="SourceGraphic" in2="BackgroundImageFix" result="shape"/>
<feColorMatrix in="SourceAlpha" type="matrix" values="0 0 0 0 0 0 0 0 0 0 0 0 0 0 0 0 0 0 127 0" result="hardAlpha"/>
<feOffset dy="-0.15"/>
<feComposite in2="hardAlpha" operator="arithmetic" k2="-1" k3="1"/>
<feColorMatrix type="matrix" values="0 0 0 0 0 0 0 0 0 0 0 0 0 0 0 0 0 0 0.12 0"/>
<feBlend mode="normal" in2="shape" result="effect1_innerShadow_2_298"/>
<feColorMatrix in="SourceAlpha" type="matrix" values="0 0 0 0 0 0 0 0 0 0 0 0 0 0 0 0 0 0 127 0" result="hardAlpha"/>
<feOffset dy="0.15"/>
<feComposite in2="hardAlpha" operator="arithmetic" k2="-1" k3="1"/>
<feColorMatrix type="matrix" values="0 0 0 0 1 0 0 0 0 1 0 0 0 0 1 0 0 0 0.25 0"/>
<feBlend mode="normal" in2="effect1_innerShadow_2_298" result="effect2_innerShadow_2_298"/>
</filter>
<filter id="filter1_i_2_298" x="14.8713" y="28.5015" width="23.7775" height="18.3264" filterUnits="userSpaceOnUse" color-interpolation-filters="sRGB">
<feFlood flood-opacity="0" result="BackgroundImageFix"/>
<feBlend mode="normal" in="SourceGraphic" in2="BackgroundImageFix" result="shape"/>
<feColorMatrix in="SourceAlpha" type="matrix" values="0 0 0 0 0 0 0 0 0 0 0 0 0 0 0 0 0 0 127 0" result="hardAlpha"/>
<feOffset dy="-0.15"/>
<feComposite in2="hardAlpha" operator="arithmetic" k2="-1" k3="1"/>
<feColorMatrix type="matrix" values="0 0 0 0 0 0 0 0 0 0 0 0 0 0 0 0 0 0 0.08 0"/>
<feBlend mode="normal" in2="shape" result="effect1_innerShadow_2_298"/>
</filter>
<linearGradient id="paint0_linear_2_298" x1="31.0662" y1="12.4104" x2="7.15181" y2="36.3247" gradientUnits="userSpaceOnUse">
<stop stop-color="#00A0FF"/>
<stop offset="0.0066" stop-color="#00A1FF"/>
<stop offset="0.2601" stop-color="#00BEFF"/>
<stop offset="0.5122" stop-color="#00D2FF"/>
<stop offset="0.7604" stop-color="#00DFFF"/>
<stop offset="1" stop-color="#00E3FF"/>
</linearGradient>
<linearGradient id="paint1_linear_2_298" x1="48.2128" y1="28.5015" x2="13.7336" y2="28.5015" gradientUnits="userSpaceOnUse">
<stop stop-color="#FFE000"/>
<stop offset="0.4087" stop-color="#FFBD00"/>
<stop offset="0.7754" stop-color="#FFA500"/>
<stop offset="1" stop-color="#FF9C00"/>
</linearGradient>
<linearGradient id="paint2_linear_2_298" x1="35.3801" y1="31.7703" x2="2.94922" y2="64.2011" gradientUnits="userSpaceOnUse">
<stop stop-color="#FF3A44"/>
<stop offset="1" stop-color="#C31162"/>
</linearGradient>
<linearGradient id="paint3_linear_2_298" x1="10.3988" y1="0.251905" x2="24.8801" y2="14.7332" gradientUnits="userSpaceOnUse">
<stop stop-color="#32A071"/>
<stop offset="0.0685" stop-color="#2DA771"/>
<stop offset="0.4762" stop-color="#15CF74"/>
<stop offset="0.8009" stop-color="#06E775"/>
<stop offset="1" stop-color="#00F076"/>
</linearGradient>
</defs>
</svg>
